<svg width="229" height="86" viewBox="0 0 229 86" fill="none" xmlns="http://www.w3.org/2000/svg">
<path d="M202.464 13.2098C197.429 13.2094 192.506 14.6704 188.319 17.408C184.132 20.1456 180.869 24.0368 178.942 28.5896C177.015 33.1423 176.511 38.1521 177.493 42.9852C178.476 47.8183 180.901 52.2577 184.462 55.7419C188.023 59.2262 192.56 61.5987 197.499 62.5594C202.437 63.5202 207.557 63.026 212.208 61.1394C216.86 59.2528 220.836 56.0585 223.633 51.9606C226.429 47.8626 227.921 43.0451 227.92 38.1172C227.911 31.5132 225.226 25.1823 220.454 20.513C215.682 15.8437 209.212 13.2172 202.464 13.2098ZM202.464 51.2191C199.817 51.2191 197.23 50.4511 195.029 49.0121C192.828 47.5731 191.113 45.5278 190.1 43.1347C189.087 40.7417 188.821 38.1085 189.337 35.5679C189.853 33.0273 191.128 30.6936 192.999 28.8617C194.87 27.0298 197.255 25.782 199.85 25.2761C202.446 24.7703 205.137 25.029 207.583 26.0197C210.028 27.0104 212.119 28.6884 213.59 30.8418C215.061 32.9951 215.847 35.5269 215.848 38.1172C215.845 41.5904 214.434 44.9206 211.925 47.377C209.416 49.8333 206.013 51.2151 202.464 51.2191ZM127.509 33.0823L123.062 30.9073C121.134 29.9784 119.927 29.2462 119.44 28.7107C118.975 28.2361 118.713 27.6062 118.707 26.9492C118.707 26.1093 119.09 25.4051 119.862 24.8387C120.635 24.2724 121.7 23.9903 123.062 23.9903C125.556 23.9903 128.327 25.4697 131.375 28.4286L138.888 21.0766C137.055 18.6355 134.657 16.6536 131.891 15.2927C129.125 13.9319 126.07 13.2307 122.974 13.2464C118.379 13.2464 114.608 14.573 111.661 17.2261C108.713 19.8792 107.239 23.0765 107.238 26.8178C107.238 32.6193 111.149 37.4489 118.973 41.3065L123.062 43.3072C126.583 45.0472 128.343 46.831 128.343 48.6586C128.343 49.6449 127.855 50.5149 126.878 51.2686C125.9 52.0224 124.612 52.3992 123.011 52.3992C121.528 52.3992 119.831 51.8967 117.921 50.8918C116.019 49.8945 114.307 48.5831 112.86 47.0155L105.46 54.9145C109.666 60.3083 115.296 63.0052 122.351 63.0052C127.656 63.0052 131.887 61.599 135.044 58.7865C138.201 55.974 139.779 52.4645 139.777 48.258C139.777 45.0996 138.903 42.3445 137.154 39.9929C135.405 37.6413 132.19 35.3378 127.509 33.0823ZM51.9445 14.1961H39.8701L39.9097 18.445C35.9993 14.5687 31.1823 13.2098 26.2267 13.2098C19.4748 13.2098 12.9994 15.8347 8.22507 20.5069C3.45074 25.1792 0.768555 31.5161 0.768555 38.1237C0.768555 44.7312 3.45074 51.0682 8.22507 55.7404C12.9994 60.4127 19.4748 63.0375 26.2267 63.0375C32.0867 63.0375 37.1018 60.4964 39.6852 57.264C39.6852 57.4599 39.6676 59.8094 39.661 60.0635C39.6126 61.67 39.375 64.2435 37.828 66.8729C36.9213 68.3726 35.7168 69.6795 34.2857 70.7163C32.8545 71.7532 31.2257 72.499 29.4952 72.9099C27.7648 73.3208 25.9678 73.3883 24.2102 73.1086C22.4527 72.8288 20.7702 72.2075 19.262 71.2811L13.2567 81.5102C17.2018 83.852 21.727 85.0913 26.3411 85.0937C33.022 85.0937 41.3533 82.5095 47.2617 74.4963C52.1755 67.8377 51.9445 61.5473 51.9445 55.4572V14.1961ZM26.2267 51.2191C23.5798 51.2191 20.9924 50.4511 18.7915 49.0121C16.5907 47.5731 14.8753 45.5278 13.8622 43.1347C12.849 40.7417 12.5837 38.1085 13.0998 35.5679C13.6159 33.0273 14.8901 30.6936 16.7614 28.8617C18.6327 27.0298 21.0171 25.782 23.613 25.2761C26.2089 24.7703 28.8997 25.029 31.3454 26.0197C33.791 27.0104 35.8816 28.6884 37.3527 30.8418C38.8239 32.9951 39.6095 35.5269 39.6104 38.1172C39.6081 41.5906 38.1974 44.9211 35.6881 47.3776C33.1788 49.8341 29.776 51.2157 26.2267 51.2191ZM100.081 14.1961H87.9454V37.8846C87.9697 41.2398 87.9652 47.0521 85.4368 49.5437C84.2243 50.7367 82.904 51.8049 80.1027 51.8049C77.3014 51.8049 75.9701 50.7281 74.7598 49.5437C72.2313 47.0521 72.2379 41.2398 72.2621 37.8846V14.1961H60.1349V37.8007C60.1019 42.6611 60.0403 51.7123 66.1292 57.7098C69.7029 61.2286 73.9588 63.0138 80.1115 63.0138C86.2642 63.0138 90.5223 61.2286 94.096 57.7098C100.185 51.7123 100.123 42.6611 100.09 37.8007L100.081 14.1961Z" fill="#F45D48"/>
<path d="M162.851 51.0778C161.467 50.8948 160.105 49.9279 159.331 48.162C158.8 46.9517 158.609 45.3624 158.609 43.4049V24.3572H172.87V14.1604H158.609V0.916367H146.506V42.4444C146.506 46.5167 146.84 51.4525 149.587 56.0115C151.93 59.8878 156.058 63.0211 162.834 63.0211C171.048 63.0211 176.959 57.2067 176.959 57.2067L169.697 48.4678C169.697 48.4678 166.509 51.5624 162.851 51.0778Z" fill="#F45D48"/>
</svg>
