<svg xmlns="http://www.w3.org/2000/svg" xmlns:xlink="http://www.w3.org/1999/xlink" width="278.44" height="45.7" viewBox="0 0 278.44 45.7"><defs><linearGradient id="a" x1="56.89" y1="-0.23" x2="42.04" y2="21.15" gradientUnits="userSpaceOnUse"><stop offset="0.1" stop-color="#0a456d"/><stop offset="0.92" stop-color="#132133"/></linearGradient><linearGradient id="b" x1="0.84" y1="43.51" x2="14.51" y2="25.01" gradientUnits="userSpaceOnUse"><stop offset="0" stop-color="#0a456d"/><stop offset="1" stop-color="#132133"/></linearGradient><linearGradient id="c" x1="-10.85" y1="22.85" x2="70.47" y2="22.85" gradientUnits="userSpaceOnUse"><stop offset="0" stop-color="#29aae2"/><stop offset="0.12" stop-color="#1d8bbf"/><stop offset="0.29" stop-color="#0d6592"/><stop offset="0.42" stop-color="#044d77"/><stop offset="0.5" stop-color="#00446d"/><stop offset="0.56" stop-color="#044e78"/><stop offset="0.68" stop-color="#0e6796"/><stop offset="0.82" stop-color="#1f91c5"/><stop offset="0.9" stop-color="#29aae2"/></linearGradient></defs><path d="M26.8,12.73h0L56.9,30.11V2.28A2.27,2.27,0,0,0,53,.68l-1.88,1.9A34.26,34.26,0,0,1,26.8,12.73Z" fill="url(#a)"/><path d="M30.1,33h0L0,15.59V43.42A2.28,2.28,0,0,0,3.89,45l1.88-1.9A34.22,34.22,0,0,1,30.1,33Z" fill="url(#b)"/><path d="M44.68,23.06h0L5.63.51A3.75,3.75,0,0,0,0,3.76V27.57s0-12,12.21-4.93h0L51.27,45.19a3.75,3.75,0,0,0,5.63-3.25V18.13S56.9,30.11,44.68,23.06Z" fill="url(#c)"/><path d="M107.44,6.69V39H105.5l-22-28.08V39H81.11V6.69h2l22,28.07V6.69Z" fill="#122133"/><path d="M141,36.89V39H118.7V6.69h21.62V8.81H121.06V21.56h17.22v2.07H121.06V36.89Z" fill="#122133"/><path d="M195.73,6.69,184.79,39h-2.5l-10-29L162.2,39h-2.49l-11-32.32h2.49l9.84,29.09L171.16,6.69h2.27l10.06,29.14,9.93-29.14Z" fill="#122133"/><path d="M204.09,6.69h2.35V39h-2.35Z" fill="#122133"/><path d="M227.6,8.81H216V6.69h25.63V8.81H230V39H227.6Z" fill="#122133"/><path d="M265.42,27.88V39h-2.36V27.88L250,6.69h2.58l11.69,19L276,6.69h2.45Z" fill="#122133"/></svg>